<?xml version="1.0" encoding="utf-8"?>
<!-- Generator: Adobe Illustrator 22.1.0, SVG Export Plug-In . SVG Version: 6.00 Build 0)  -->
<svg version="1.1" xmlns="http://www.w3.org/2000/svg" xmlns:xlink="http://www.w3.org/1999/xlink" x="0px" y="0px"
	 viewBox="0 0 1132.5 232.2" style="enable-background:new 0 0 1132.5 232.2;" xml:space="preserve">
<style type="text/css">
	.st0{fill:#224F9F;}
	.st1{fill:#FAED36;stroke:#FAED36;stroke-width:1.1064;}
</style>
<g id="Layer_5">
	<g>
		<rect x="41" y="34.7" class="st0" width="247.8" height="167"/>
		<g>
			<g>
				<polygon class="st1" points="227,115.5 224.5,115.4 220.6,115.4 219.4,111.9 218.6,109.8 217.8,111.9 216.5,115.4 212.7,115.4 
					210.1,115.5 212.2,117 215.2,119.2 214.1,122.6 213.4,124.9 215.4,123.5 218.6,121.5 221.7,123.5 223.8,124.9 223,122.6 
					221.9,119.2 224.9,117 				"/>
				<polygon class="st1" points="208.1,92.2 207,95.7 206.2,98 208.3,96.6 211.4,94.5 214.6,96.6 216.6,98 215.9,95.7 214.8,92.2 
					217.8,90.1 219.9,88.6 217.3,88.5 213.5,88.4 212.2,85 211.4,82.8 210.6,85 209.4,88.4 205.5,88.5 203,88.6 205.1,90.1 				"/>
				<polygon class="st1" points="194,68.9 192.7,65.5 191.9,63.3 191.1,65.5 189.9,68.9 186.1,68.9 183.5,69 185.6,70.5 188.6,72.7 
					187.5,76.1 186.8,78.4 188.8,77.1 191.9,75 195.1,77.1 197.1,78.4 196.4,76.1 195.3,72.7 198.3,70.5 200.4,69 197.8,68.9 				
					"/>
				<polygon class="st1" points="166.7,61.6 165.5,58.2 164.7,56.1 163.9,58.2 162.6,61.6 158.8,61.7 156.2,61.8 158.3,63.3 
					161.3,65.5 160.3,68.9 159.5,71.2 161.5,69.9 164.7,67.8 167.9,69.9 169.9,71.2 169.1,68.9 168,65.5 171,63.3 173.1,61.8 
					170.6,61.7 				"/>
				<polygon class="st1" points="139.7,68.9 138.5,65.5 137.7,63.3 136.9,65.5 135.7,68.9 131.8,68.9 129.2,69 131.3,70.5 
					134.4,72.7 133.3,76.1 132.5,78.4 134.5,77.1 137.7,75 140.8,77.1 142.9,78.4 142.1,76.1 141,72.7 144,70.5 146.2,69 
					143.6,68.9 				"/>
				<polygon class="st1" points="120.1,88.2 118.9,84.8 118.1,82.7 117.2,84.8 116,88.2 112.2,88.3 109.6,88.4 111.7,89.9 
					114.7,92.1 113.6,95.5 112.9,97.8 114.9,96.5 118,94.4 121.2,96.5 123.2,97.8 122.5,95.5 121.4,92.1 124.4,89.9 126.5,88.4 
					123.9,88.3 				"/>
				<polygon class="st1" points="113.8,123.5 115.9,124.8 115.1,122.5 114.1,119.1 117.1,116.9 119.2,115.4 116.6,115.4 
					112.8,115.3 111.5,111.9 110.7,109.7 109.9,111.9 108.7,115.3 104.8,115.4 102.2,115.4 104.3,116.9 107.4,119.1 106.3,122.5 
					105.5,124.8 107.5,123.5 110.7,121.4 				"/>
				<polygon class="st1" points="120,142 118.7,138.6 118,136.4 117.1,138.6 115.9,142 112.1,142.1 109.5,142.1 111.6,143.7 
					114.6,145.8 113.5,149.2 112.8,151.5 114.8,150.2 117.9,148.1 121.1,150.2 123.1,151.6 122.4,149.2 121.3,145.8 124.3,143.7 
					126.4,142.1 123.8,142.1 				"/>
				<polygon class="st1" points="139.5,161.6 138.3,158.1 137.5,156 136.7,158.1 135.4,161.6 131.6,161.6 129,161.7 131.1,163.2 
					134.1,165.4 133,168.8 132.3,171.1 134.3,169.8 137.5,167.7 140.6,169.8 142.6,171.1 141.9,168.8 140.8,165.4 143.8,163.2 
					145.9,161.7 143.3,161.6 				"/>
				<polygon class="st1" points="166.7,168.8 165.5,165.4 164.7,163.2 163.9,165.4 162.6,168.8 158.8,168.9 156.2,168.9 
					158.3,170.4 161.3,172.6 160.2,176 159.5,178.3 161.5,177 164.7,174.9 167.8,177 169.8,178.3 169.1,176 168,172.6 171,170.4 
					173.1,168.9 170.6,168.9 				"/>
				<polygon class="st1" points="193.7,161.7 192.5,158.3 191.7,156.1 190.9,158.3 189.6,161.7 185.8,161.8 183.2,161.8 
					185.3,163.3 188.4,165.5 187.3,168.9 186.5,171.2 188.5,169.9 191.7,167.8 194.8,169.9 196.8,171.2 196.1,168.9 195,165.5 
					198,163.3 200.1,161.8 197.6,161.8 				"/>
				<polygon class="st1" points="213.4,142.2 212.1,138.8 211.3,136.7 210.5,138.8 209.3,142.2 205.4,142.3 202.9,142.4 205,143.9 
					208,146.1 206.9,149.5 206.2,151.8 208.2,150.5 211.3,148.4 214.5,150.5 216.5,151.8 215.7,149.5 214.7,146.1 217.7,143.9 
					219.8,142.4 217.2,142.3 				"/>
			</g>
		</g>
	</g>
</g>
<g id="Layer_4">
	<g>
		<path class="st0" d="M316.7,80.6V44.9h24.1v4.2h-19.4v11.1h16.8v4.2h-16.8v16.3H316.7z"/>
		<path class="st0" d="M363.4,80.6v-3.8c-2,2.9-4.8,4.4-8.2,4.4c-1.5,0-3-0.3-4.3-0.9c-1.3-0.6-2.3-1.3-3-2.2
			c-0.6-0.9-1.1-2-1.4-3.3c-0.2-0.9-0.3-2.2-0.3-4.1V54.7h4.4v14.4c0,2.3,0.1,3.8,0.3,4.6c0.3,1.2,0.9,2.1,1.8,2.7
			c0.9,0.7,2,1,3.3,1c1.3,0,2.6-0.3,3.7-1c1.2-0.7,2-1.6,2.5-2.8c0.5-1.2,0.7-2.9,0.7-5.1V54.7h4.4v25.9H363.4z"/>
		<path class="st0" d="M374.2,80.6V54.7h4v3.7c1.9-2.8,4.7-4.3,8.3-4.3c1.6,0,3,0.3,4.3,0.8c1.3,0.6,2.3,1.3,2.9,2.2
			c0.7,0.9,1.1,2,1.4,3.2c0.2,0.8,0.2,2.2,0.2,4.3v15.9h-4.4V64.9c0-1.8-0.2-3.1-0.5-4c-0.3-0.9-0.9-1.6-1.8-2.1
			c-0.9-0.5-1.9-0.8-3.1-0.8c-1.9,0-3.5,0.6-4.8,1.8c-1.4,1.2-2,3.4-2,6.8v14.2H374.2z"/>
		<path class="st0" d="M418.8,80.6v-3.3c-1.6,2.6-4.1,3.9-7.3,3.9c-2.1,0-4-0.6-5.7-1.7c-1.7-1.1-3.1-2.7-4-4.8c-1-2-1.4-4.4-1.4-7
			c0-2.6,0.4-4.9,1.3-7c0.9-2.1,2.2-3.7,3.9-4.8c1.7-1.1,3.7-1.7,5.8-1.7c1.6,0,3,0.3,4.2,1c1.2,0.7,2.2,1.5,3,2.6V44.9h4.4v35.8
			H418.8z M404.9,67.7c0,3.3,0.7,5.8,2.1,7.4c1.4,1.6,3.1,2.5,5,2.5c1.9,0,3.6-0.8,4.9-2.4c1.3-1.6,2-4,2-7.2c0-3.5-0.7-6.2-2.1-7.8
			c-1.4-1.7-3.1-2.5-5.1-2.5c-2,0-3.6,0.8-4.9,2.4C405.6,61.8,404.9,64.3,404.9,67.7z"/>
		<path class="st0" d="M447.6,72.3l4.5,0.6c-0.7,2.7-2,4.7-4,6.2c-1.9,1.5-4.4,2.2-7.4,2.2c-3.8,0-6.8-1.2-9-3.5
			c-2.2-2.3-3.3-5.6-3.3-9.8c0-4.4,1.1-7.7,3.4-10.2c2.2-2.4,5.2-3.6,8.7-3.6c3.5,0,6.3,1.2,8.5,3.5c2.2,2.4,3.3,5.7,3.3,10
			c0,0.3,0,0.7,0,1.2h-19.3c0.2,2.8,1,5,2.4,6.5c1.4,1.5,3.3,2.3,5.4,2.3c1.6,0,3-0.4,4.1-1.3C446,75.5,446.9,74.1,447.6,72.3z
			 M433.1,65.2h14.5c-0.2-2.2-0.7-3.8-1.7-4.9c-1.4-1.7-3.2-2.5-5.4-2.5c-2,0-3.7,0.7-5.1,2C434.1,61.1,433.3,62.9,433.1,65.2z"/>
		<path class="st0" d="M474.5,80.6v-3.3c-1.6,2.6-4.1,3.9-7.3,3.9c-2.1,0-4-0.6-5.7-1.7c-1.7-1.1-3.1-2.7-4-4.8c-1-2-1.4-4.4-1.4-7
			c0-2.6,0.4-4.9,1.3-7c0.9-2.1,2.2-3.7,3.9-4.8c1.7-1.1,3.7-1.7,5.8-1.7c1.6,0,3,0.3,4.2,1c1.2,0.7,2.2,1.5,3,2.6V44.9h4.4v35.8
			H474.5z M460.6,67.7c0,3.3,0.7,5.8,2.1,7.4c1.4,1.6,3.1,2.5,5,2.5c1.9,0,3.6-0.8,4.9-2.4c1.3-1.6,2-4,2-7.2c0-3.5-0.7-6.2-2.1-7.8
			c-1.4-1.7-3.1-2.5-5.1-2.5c-2,0-3.6,0.8-4.9,2.4C461.2,61.8,460.6,64.3,460.6,67.7z"/>
		<path class="st0" d="M503.4,80.6h-4.1V44.9h4.4v12.8c1.9-2.3,4.2-3.5,7.1-3.5c1.6,0,3.1,0.3,4.5,1c1.4,0.6,2.6,1.5,3.5,2.7
			c0.9,1.2,1.6,2.6,2.2,4.2c0.5,1.6,0.8,3.4,0.8,5.3c0,4.4-1.1,7.9-3.3,10.3c-2.2,2.4-4.8,3.6-7.9,3.6c-3.1,0-5.5-1.3-7.2-3.8V80.6z
			 M503.3,67.5c0,3.1,0.4,5.4,1.3,6.7c1.4,2.3,3.3,3.4,5.6,3.4c1.9,0,3.6-0.8,5-2.5c1.4-1.7,2.1-4.2,2.1-7.5c0-3.4-0.7-5.9-2-7.5
			c-1.3-1.6-3-2.4-4.9-2.4c-1.9,0-3.6,0.8-5,2.5C504,61.9,503.3,64.3,503.3,67.5z"/>
		<path class="st0" d="M526.9,90.6l-0.5-4.1c1,0.3,1.8,0.4,2.5,0.4c1,0,1.8-0.2,2.3-0.5c0.6-0.3,1.1-0.8,1.4-1.4
			c0.3-0.4,0.7-1.5,1.3-3.3c0.1-0.2,0.2-0.6,0.4-1.1l-9.8-26h4.7l5.4,15c0.7,1.9,1.3,3.9,1.9,6c0.5-2,1.1-4,1.8-5.9l5.5-15.1h4.4
			l-9.9,26.4c-1.1,2.8-1.9,4.8-2.5,5.9c-0.8,1.4-1.7,2.5-2.7,3.2c-1,0.7-2.2,1-3.6,1C528.9,91.2,528,91,526.9,90.6z"/>
		<path class="st0" d="M575.6,76.7l0.6,3.9c-1.2,0.3-2.3,0.4-3.3,0.4c-1.6,0-2.8-0.3-3.7-0.8c-0.9-0.5-1.5-1.2-1.9-2
			c-0.4-0.8-0.5-2.6-0.5-5.2V58.1h-3.2v-3.4h3.2v-6.4l4.4-2.6v9.1h4.4v3.4h-4.4v15.2c0,1.3,0.1,2.1,0.2,2.4c0.2,0.4,0.4,0.6,0.8,0.9
			c0.3,0.2,0.8,0.3,1.5,0.3C574.2,76.9,574.8,76.8,575.6,76.7z"/>
		<path class="st0" d="M579.9,80.6V44.9h4.4v12.8c2.1-2.4,4.6-3.6,7.8-3.6c1.9,0,3.6,0.4,5,1.1c1.4,0.8,2.4,1.8,3,3.1
			c0.6,1.3,0.9,3.3,0.9,5.8v16.4h-4.4V64.2c0-2.2-0.5-3.8-1.4-4.8c-1-1-2.3-1.5-4-1.5c-1.3,0-2.5,0.3-3.7,1c-1.1,0.7-2,1.6-2.5,2.7
			c-0.5,1.2-0.7,2.7-0.7,4.8v14.2H579.9z"/>
		<path class="st0" d="M625.5,72.3l4.5,0.6c-0.7,2.7-2,4.7-4,6.2c-1.9,1.5-4.4,2.2-7.4,2.2c-3.8,0-6.8-1.2-9-3.5
			c-2.2-2.3-3.3-5.6-3.3-9.8c0-4.4,1.1-7.7,3.4-10.2c2.2-2.4,5.2-3.6,8.7-3.6c3.5,0,6.3,1.2,8.5,3.5c2.2,2.4,3.3,5.7,3.3,10
			c0,0.3,0,0.7,0,1.2h-19.3c0.2,2.8,1,5,2.4,6.5c1.4,1.5,3.3,2.3,5.4,2.3c1.6,0,3-0.4,4.1-1.3C623.9,75.5,624.8,74.1,625.5,72.3z
			 M611.1,65.2h14.5c-0.2-2.2-0.7-3.8-1.7-4.9c-1.4-1.7-3.2-2.5-5.4-2.5c-2,0-3.7,0.7-5.1,2C612,61.1,611.2,62.9,611.1,65.2z"/>
		<path class="st0" d="M316.5,135.6V99.9h25.9v4.2h-21.1v11h19.8v4.2h-19.8v12.2h22v4.2H316.5z"/>
		<path class="st0" d="M349.2,135.6v-25.9h4v3.9c1-1.8,1.9-3.1,2.8-3.6c0.9-0.6,1.8-0.9,2.8-0.9c1.5,0,3,0.5,4.5,1.4l-1.5,4.1
			c-1.1-0.6-2.1-1-3.2-1c-1,0-1.8,0.3-2.6,0.9c-0.8,0.6-1.3,1.4-1.6,2.4c-0.5,1.6-0.7,3.3-0.7,5.1v13.6H349.2z"/>
		<path class="st0" d="M382.8,132.4c-1.6,1.4-3.2,2.4-4.7,2.9c-1.5,0.6-3.1,0.9-4.8,0.9c-2.8,0-5-0.7-6.6-2.1
			c-1.5-1.4-2.3-3.2-2.3-5.3c0-1.3,0.3-2.4,0.9-3.5c0.6-1,1.3-1.9,2.3-2.5c0.9-0.6,2-1.1,3.2-1.4c0.9-0.2,2.2-0.4,3.9-0.7
			c3.5-0.4,6.2-0.9,7.8-1.5c0-0.6,0-1,0-1.1c0-1.8-0.4-3.1-1.2-3.8c-1.1-1-2.8-1.5-5-1.5c-2.1,0-3.6,0.4-4.6,1.1
			c-1,0.7-1.7,2-2.2,3.8l-4.3-0.6c0.4-1.8,1-3.3,1.9-4.5c0.9-1.1,2.2-2,3.9-2.6c1.7-0.6,3.7-0.9,5.9-0.9c2.2,0,4,0.3,5.4,0.8
			c1.4,0.5,2.4,1.2,3.1,2c0.7,0.8,1.1,1.8,1.4,3c0.1,0.7,0.2,2.1,0.2,4.1v5.9c0,4.1,0.1,6.7,0.3,7.8c0.2,1.1,0.6,2.1,1.1,3.1h-4.6
			C383.2,134.7,382.9,133.7,382.8,132.4z M382.4,122.6c-1.6,0.7-4,1.2-7.2,1.7c-1.8,0.3-3.1,0.6-3.8,0.9c-0.7,0.3-1.3,0.8-1.7,1.4
			c-0.4,0.6-0.6,1.3-0.6,2.1c0,1.2,0.4,2.1,1.3,2.9c0.9,0.8,2.2,1.2,3.9,1.2c1.7,0,3.2-0.4,4.5-1.1c1.3-0.7,2.3-1.8,2.9-3
			c0.5-1,0.7-2.5,0.7-4.4V122.6z"/>
		<path class="st0" d="M391.9,127.9l4.3-0.7c0.2,1.7,0.9,3.1,2,4c1.1,0.9,2.7,1.4,4.7,1.4c2,0,3.5-0.4,4.5-1.2
			c1-0.8,1.5-1.8,1.5-2.9c0-1-0.4-1.8-1.3-2.3c-0.6-0.4-2.1-0.9-4.5-1.5c-3.2-0.8-5.5-1.5-6.7-2.1c-1.2-0.6-2.2-1.4-2.8-2.5
			c-0.6-1.1-1-2.2-1-3.5c0-1.2,0.3-2.2,0.8-3.2c0.5-1,1.2-1.8,2.2-2.5c0.7-0.5,1.6-0.9,2.8-1.3c1.2-0.3,2.4-0.5,3.8-0.5
			c2,0,3.8,0.3,5.4,0.9c1.5,0.6,2.7,1.4,3.4,2.4c0.7,1,1.2,2.3,1.5,4l-4.3,0.6c-0.2-1.3-0.8-2.4-1.7-3.1c-0.9-0.7-2.3-1.1-4-1.1
			c-2,0-3.5,0.3-4.3,1c-0.9,0.7-1.3,1.4-1.3,2.3c0,0.6,0.2,1.1,0.5,1.5c0.4,0.5,0.9,0.9,1.7,1.2c0.4,0.2,1.7,0.5,3.9,1.1
			c3.1,0.8,5.3,1.5,6.5,2c1.2,0.5,2.2,1.3,2.9,2.3c0.7,1,1,2.3,1,3.8c0,1.5-0.4,2.8-1.3,4.1c-0.9,1.3-2.1,2.3-3.7,3
			c-1.6,0.7-3.4,1.1-5.5,1.1c-3.4,0-5.9-0.7-7.7-2.1C393.5,132.7,392.4,130.7,391.9,127.9z"/>
		<path class="st0" d="M418.7,135.6v-25.9h3.9v3.6c0.8-1.3,1.9-2.3,3.2-3.1c1.4-0.8,2.9-1.2,4.6-1.2c1.9,0,3.5,0.4,4.7,1.2
			c1.2,0.8,2.1,1.9,2.6,3.3c2.1-3,4.7-4.5,8-4.5c2.6,0,4.5,0.7,5.9,2.1c1.4,1.4,2.1,3.6,2.1,6.6v17.8h-4.4v-16.3
			c0-1.8-0.1-3-0.4-3.8c-0.3-0.8-0.8-1.4-1.6-1.9c-0.7-0.5-1.6-0.7-2.6-0.7c-1.8,0-3.3,0.6-4.5,1.8c-1.2,1.2-1.8,3.2-1.8,5.8v15.1
			h-4.4v-16.8c0-2-0.4-3.4-1.1-4.4c-0.7-1-1.9-1.5-3.5-1.5c-1.2,0-2.4,0.3-3.4,1c-1.1,0.7-1.8,1.6-2.3,2.9c-0.5,1.3-0.7,3.1-0.7,5.4
			v13.5H418.7z"/>
		<path class="st0" d="M477.3,135.6v-3.8c-2,2.9-4.8,4.4-8.2,4.4c-1.5,0-3-0.3-4.3-0.9c-1.3-0.6-2.3-1.3-3-2.2
			c-0.6-0.9-1.1-2-1.4-3.3c-0.2-0.9-0.3-2.2-0.3-4.1v-16.1h4.4v14.4c0,2.3,0.1,3.8,0.3,4.6c0.3,1.2,0.9,2.1,1.8,2.7
			c0.9,0.7,2,1,3.3,1c1.3,0,2.6-0.3,3.7-1c1.2-0.7,2-1.6,2.5-2.8c0.5-1.2,0.7-2.9,0.7-5.1v-13.9h4.4v25.9H477.3z"/>
		<path class="st0" d="M486.4,127.9l4.3-0.7c0.2,1.7,0.9,3.1,2,4c1.1,0.9,2.7,1.4,4.7,1.4c2,0,3.5-0.4,4.5-1.2
			c1-0.8,1.5-1.8,1.5-2.9c0-1-0.4-1.8-1.3-2.3c-0.6-0.4-2.1-0.9-4.5-1.5c-3.2-0.8-5.5-1.5-6.7-2.1c-1.2-0.6-2.2-1.4-2.8-2.5
			c-0.6-1.1-1-2.2-1-3.5c0-1.2,0.3-2.2,0.8-3.2c0.5-1,1.2-1.8,2.2-2.5c0.7-0.5,1.6-0.9,2.8-1.3c1.2-0.3,2.4-0.5,3.8-0.5
			c2,0,3.8,0.3,5.4,0.9c1.5,0.6,2.7,1.4,3.4,2.4c0.7,1,1.2,2.3,1.5,4l-4.3,0.6c-0.2-1.3-0.8-2.4-1.7-3.1c-0.9-0.7-2.3-1.1-4-1.1
			c-2,0-3.5,0.3-4.3,1c-0.9,0.7-1.3,1.4-1.3,2.3c0,0.6,0.2,1.1,0.5,1.5c0.4,0.5,0.9,0.9,1.7,1.2c0.4,0.2,1.7,0.5,3.9,1.1
			c3.1,0.8,5.3,1.5,6.5,2c1.2,0.5,2.2,1.3,2.9,2.3c0.7,1,1,2.3,1,3.8c0,1.5-0.4,2.8-1.3,4.1c-0.9,1.3-2.1,2.3-3.7,3
			c-1.6,0.7-3.4,1.1-5.5,1.1c-3.4,0-5.9-0.7-7.7-2.1C488,132.7,486.9,130.7,486.4,127.9z"/>
		<path class="st0" d="M522.4,129.9V120h-9.7v-4.1h9.7v-9.7h4.2v9.7h9.7v4.1h-9.7v9.8H522.4z"/>
		<path class="st0" d="M556.8,135.6V99.9h13.5c2.4,0,4.2,0.1,5.4,0.3c1.8,0.3,3.2,0.9,4.4,1.7c1.2,0.8,2.1,2,2.9,3.5
			c0.7,1.5,1.1,3.1,1.1,4.9c0,3-1,5.6-2.9,7.7c-1.9,2.1-5.4,3.2-10.5,3.2h-9.2v14.6H556.8z M561.5,116.9h9.3c3.1,0,5.2-0.6,6.5-1.7
			c1.3-1.1,1.9-2.7,1.9-4.8c0-1.5-0.4-2.8-1.1-3.8c-0.8-1.1-1.8-1.8-3-2.1c-0.8-0.2-2.3-0.3-4.4-0.3h-9.2V116.9z"/>
		<path class="st0" d="M589.5,135.6v-25.9h4v3.9c1-1.8,1.9-3.1,2.8-3.6c0.9-0.6,1.8-0.9,2.8-0.9c1.5,0,3,0.5,4.5,1.4l-1.5,4.1
			c-1.1-0.6-2.1-1-3.2-1c-1,0-1.8,0.3-2.6,0.9c-0.8,0.6-1.3,1.4-1.6,2.4c-0.5,1.6-0.7,3.3-0.7,5.1v13.6H589.5z"/>
		<path class="st0" d="M604.6,122.7c0-4.8,1.3-8.4,4-10.7c2.2-1.9,4.9-2.9,8.2-2.9c3.6,0,6.5,1.2,8.7,3.5c2.3,2.3,3.4,5.6,3.4,9.7
			c0,3.3-0.5,6-1.5,7.9c-1,1.9-2.5,3.4-4.4,4.5c-1.9,1.1-4,1.6-6.3,1.6c-3.6,0-6.6-1.2-8.8-3.5C605.7,130.4,604.6,127.1,604.6,122.7
			z M609.1,122.7c0,3.3,0.7,5.8,2.2,7.5c1.4,1.7,3.3,2.5,5.5,2.5c2.2,0,4-0.8,5.4-2.5c1.4-1.7,2.2-4.2,2.2-7.6
			c0-3.2-0.7-5.6-2.2-7.3c-1.5-1.7-3.3-2.5-5.4-2.5c-2.2,0-4,0.8-5.5,2.5C609.8,116.9,609.1,119.4,609.1,122.7z"/>
		<path class="st0" d="M633.2,137.8l4.3,0.6c0.2,1.3,0.7,2.3,1.5,2.9c1.1,0.8,2.6,1.2,4.5,1.2c2,0,3.6-0.4,4.7-1.2
			c1.1-0.8,1.9-2,2.2-3.4c0.2-0.9,0.3-2.8,0.3-5.6c-1.9,2.3-4.3,3.4-7.2,3.4c-3.6,0-6.3-1.3-8.3-3.9c-2-2.6-2.9-5.7-2.9-9.3
			c0-2.5,0.4-4.8,1.3-6.8c0.9-2.1,2.2-3.7,3.9-4.8c1.7-1.1,3.7-1.7,6-1.7c3.1,0,5.6,1.2,7.6,3.7v-3.1h4.1v22.4c0,4-0.4,6.9-1.2,8.6
			c-0.8,1.7-2.1,3-3.9,4c-1.8,1-4,1.5-6.6,1.5c-3.1,0-5.6-0.7-7.5-2.1C634.1,142.7,633.2,140.6,633.2,137.8z M636.9,122.2
			c0,3.4,0.7,5.9,2,7.4c1.4,1.6,3,2.3,5.1,2.3c2,0,3.7-0.8,5.1-2.3c1.4-1.6,2.1-4,2.1-7.3c0-3.2-0.7-5.6-2.1-7.2
			c-1.4-1.6-3.1-2.4-5.1-2.4c-2,0-3.6,0.8-5,2.4C637.5,116.7,636.9,119.1,636.9,122.2z"/>
		<path class="st0" d="M661.8,135.6v-25.9h4v3.9c1-1.8,1.9-3.1,2.8-3.6c0.9-0.6,1.8-0.9,2.8-0.9c1.5,0,3,0.5,4.5,1.4l-1.5,4.1
			c-1.1-0.6-2.1-1-3.2-1c-1,0-1.8,0.3-2.6,0.9c-0.8,0.6-1.3,1.4-1.6,2.4c-0.5,1.6-0.7,3.3-0.7,5.1v13.6H661.8z"/>
		<path class="st0" d="M695.4,132.4c-1.6,1.4-3.2,2.4-4.7,2.9c-1.5,0.6-3.1,0.9-4.8,0.9c-2.8,0-5-0.7-6.6-2.1
			c-1.5-1.4-2.3-3.2-2.3-5.3c0-1.3,0.3-2.4,0.9-3.5c0.6-1,1.3-1.9,2.3-2.5c0.9-0.6,2-1.1,3.2-1.4c0.9-0.2,2.2-0.4,3.9-0.7
			c3.5-0.4,6.2-0.9,7.8-1.5c0-0.6,0-1,0-1.1c0-1.8-0.4-3.1-1.2-3.8c-1.1-1-2.8-1.5-5-1.5c-2.1,0-3.6,0.4-4.6,1.1
			c-1,0.7-1.7,2-2.2,3.8l-4.3-0.6c0.4-1.8,1-3.3,1.9-4.5c0.9-1.1,2.2-2,3.9-2.6c1.7-0.6,3.7-0.9,5.9-0.9c2.2,0,4,0.3,5.4,0.8
			c1.4,0.5,2.4,1.2,3.1,2c0.7,0.8,1.1,1.8,1.4,3c0.1,0.7,0.2,2.1,0.2,4.1v5.9c0,4.1,0.1,6.7,0.3,7.8c0.2,1.1,0.6,2.1,1.1,3.1h-4.6
			C695.8,134.7,695.5,133.7,695.4,132.4z M695,122.6c-1.6,0.7-4,1.2-7.2,1.7c-1.8,0.3-3.1,0.6-3.8,0.9c-0.7,0.3-1.3,0.8-1.7,1.4
			c-0.4,0.6-0.6,1.3-0.6,2.1c0,1.2,0.4,2.1,1.3,2.9c0.9,0.8,2.2,1.2,3.9,1.2c1.7,0,3.2-0.4,4.5-1.1c1.3-0.7,2.3-1.8,2.9-3
			c0.5-1,0.7-2.5,0.7-4.4V122.6z"/>
		<path class="st0" d="M706.3,135.6v-25.9h3.9v3.6c0.8-1.3,1.9-2.3,3.2-3.1c1.4-0.8,2.9-1.2,4.6-1.2c1.9,0,3.5,0.4,4.7,1.2
			c1.2,0.8,2.1,1.9,2.6,3.3c2.1-3,4.7-4.5,8-4.5c2.6,0,4.5,0.7,5.9,2.1c1.4,1.4,2.1,3.6,2.1,6.6v17.8h-4.4v-16.3
			c0-1.8-0.1-3-0.4-3.8c-0.3-0.8-0.8-1.4-1.6-1.9c-0.7-0.5-1.6-0.7-2.6-0.7c-1.8,0-3.3,0.6-4.5,1.8c-1.2,1.2-1.8,3.2-1.8,5.8v15.1
			h-4.4v-16.8c0-2-0.4-3.4-1.1-4.4c-0.7-1-1.9-1.5-3.5-1.5c-1.2,0-2.4,0.3-3.4,1c-1.1,0.7-1.8,1.6-2.3,2.9c-0.5,1.3-0.7,3.1-0.7,5.4
			v13.5H706.3z"/>
		<path class="st0" d="M747.9,135.6v-25.9h3.9v3.6c0.8-1.3,1.9-2.3,3.2-3.1c1.4-0.8,2.9-1.2,4.6-1.2c1.9,0,3.5,0.4,4.7,1.2
			c1.2,0.8,2.1,1.9,2.6,3.3c2.1-3,4.7-4.5,8-4.5c2.6,0,4.5,0.7,5.9,2.1c1.4,1.4,2.1,3.6,2.1,6.6v17.8h-4.4v-16.3
			c0-1.8-0.1-3-0.4-3.8c-0.3-0.8-0.8-1.4-1.6-1.9c-0.7-0.5-1.6-0.7-2.6-0.7c-1.8,0-3.3,0.6-4.5,1.8c-1.2,1.2-1.8,3.2-1.8,5.8v15.1
			h-4.4v-16.8c0-2-0.4-3.4-1.1-4.4c-0.7-1-1.9-1.5-3.5-1.5c-1.2,0-2.4,0.3-3.4,1c-1.1,0.7-1.8,1.6-2.3,2.9c-0.5,1.3-0.7,3.1-0.7,5.4
			v13.5H747.9z"/>
		<path class="st0" d="M807.3,127.3l4.5,0.6c-0.7,2.7-2,4.7-4,6.2c-1.9,1.5-4.4,2.2-7.4,2.2c-3.8,0-6.8-1.2-9-3.5
			c-2.2-2.3-3.3-5.6-3.3-9.8c0-4.4,1.1-7.7,3.4-10.2c2.2-2.4,5.2-3.6,8.7-3.6c3.5,0,6.3,1.2,8.5,3.5c2.2,2.4,3.3,5.7,3.3,10
			c0,0.3,0,0.7,0,1.2h-19.3c0.2,2.8,1,5,2.4,6.5c1.4,1.5,3.3,2.3,5.4,2.3c1.6,0,3-0.4,4.1-1.3C805.8,130.5,806.7,129.2,807.3,127.3z
			 M792.9,120.2h14.5c-0.2-2.2-0.7-3.8-1.7-4.9c-1.4-1.7-3.2-2.5-5.4-2.5c-2,0-3.7,0.7-5.1,2C793.8,116.1,793.1,117.9,792.9,120.2z"
			/>
		<path class="st0" d="M314.2,177.7c0-4.8,1.3-8.4,4-10.7c2.2-1.9,4.9-2.9,8.2-2.9c3.6,0,6.5,1.2,8.7,3.5c2.3,2.3,3.4,5.6,3.4,9.7
			c0,3.3-0.5,6-1.5,7.9c-1,1.9-2.5,3.4-4.4,4.5c-1.9,1.1-4,1.6-6.3,1.6c-3.6,0-6.6-1.2-8.8-3.5C315.3,185.4,314.2,182.1,314.2,177.7
			z M318.7,177.7c0,3.3,0.7,5.8,2.2,7.5c1.4,1.7,3.3,2.5,5.5,2.5c2.2,0,4-0.8,5.4-2.5c1.4-1.7,2.2-4.2,2.2-7.6
			c0-3.2-0.7-5.6-2.2-7.3c-1.5-1.7-3.3-2.5-5.4-2.5c-2.2,0-4,0.8-5.5,2.5C319.5,171.9,318.7,174.4,318.7,177.7z"/>
		<path class="st0" d="M344.7,190.6v-22.5h-3.9v-3.4h3.9V162c0-1.7,0.2-3,0.5-3.9c0.4-1.1,1.2-2.1,2.2-2.8c1.1-0.7,2.6-1.1,4.5-1.1
			c1.2,0,2.6,0.1,4.1,0.4l-0.7,3.8c-0.9-0.2-1.8-0.2-2.6-0.2c-1.3,0-2.3,0.3-2.8,0.9c-0.6,0.6-0.8,1.6-0.8,3.2v2.4h5.1v3.4h-5.1
			v22.5H344.7z"/>
		<path class="st0" d="M381,186.7l0.6,3.9c-1.2,0.3-2.3,0.4-3.3,0.4c-1.6,0-2.8-0.3-3.7-0.8c-0.9-0.5-1.5-1.2-1.9-2
			c-0.4-0.8-0.5-2.6-0.5-5.2v-14.9H369v-3.4h3.2v-6.4l4.4-2.6v9.1h4.4v3.4h-4.4v15.2c0,1.3,0.1,2.1,0.2,2.4c0.2,0.4,0.4,0.6,0.8,0.9
			c0.3,0.2,0.8,0.3,1.5,0.3C379.6,186.9,380.2,186.8,381,186.7z"/>
		<path class="st0" d="M385.3,190.6v-35.8h4.4v12.8c2.1-2.4,4.6-3.6,7.8-3.6c1.9,0,3.6,0.4,5,1.1c1.4,0.8,2.4,1.8,3,3.1
			c0.6,1.3,0.9,3.3,0.9,5.8v16.4h-4.4v-16.4c0-2.2-0.5-3.8-1.4-4.8c-1-1-2.3-1.5-4-1.5c-1.3,0-2.5,0.3-3.7,1c-1.1,0.7-2,1.6-2.5,2.7
			c-0.5,1.2-0.7,2.8-0.7,4.8v14.2H385.3z"/>
		<path class="st0" d="M430.9,182.3l4.5,0.6c-0.7,2.7-2,4.7-4,6.2c-1.9,1.5-4.4,2.2-7.4,2.2c-3.8,0-6.8-1.2-9-3.5
			c-2.2-2.3-3.3-5.6-3.3-9.8c0-4.4,1.1-7.7,3.4-10.2c2.2-2.4,5.2-3.6,8.7-3.6c3.5,0,6.3,1.2,8.5,3.5c2.2,2.4,3.3,5.7,3.3,10
			c0,0.3,0,0.7,0,1.2h-19.3c0.2,2.8,1,5,2.4,6.5c1.4,1.5,3.3,2.3,5.4,2.3c1.6,0,3-0.4,4.1-1.3C429.3,185.5,430.2,184.2,430.9,182.3z
			 M416.5,175.2h14.5c-0.2-2.2-0.7-3.8-1.7-4.9c-1.4-1.7-3.2-2.5-5.4-2.5c-2,0-3.7,0.7-5.1,2C417.4,171.1,416.6,172.9,416.5,175.2z"
			/>
		<path class="st0" d="M455.5,190.6v-35.8h25.9v4.2h-21.1v11H480v4.2h-19.8v12.2h22v4.2H455.5z"/>
		<path class="st0" d="M505.2,190.6v-3.8c-2,2.9-4.8,4.4-8.2,4.4c-1.5,0-3-0.3-4.3-0.9c-1.3-0.6-2.3-1.3-3-2.2
			c-0.6-0.9-1.1-2-1.4-3.3c-0.2-0.9-0.3-2.2-0.3-4.1v-16.1h4.4v14.4c0,2.3,0.1,3.8,0.3,4.6c0.3,1.2,0.9,2.1,1.8,2.7
			c0.9,0.7,2,1,3.3,1c1.3,0,2.6-0.3,3.7-1c1.2-0.7,2-1.6,2.5-2.8c0.5-1.2,0.7-2.9,0.7-5.1v-13.9h4.4v25.9H505.2z"/>
		<path class="st0" d="M516,190.6v-25.9h4v3.9c1-1.8,1.9-3.1,2.8-3.6c0.9-0.6,1.8-0.9,2.8-0.9c1.5,0,3,0.5,4.5,1.4l-1.5,4.1
			c-1.1-0.6-2.1-1-3.2-1c-1,0-1.8,0.3-2.6,0.9c-0.8,0.6-1.3,1.4-1.6,2.4c-0.5,1.6-0.7,3.3-0.7,5.1v13.6H516z"/>
		<path class="st0" d="M531,177.7c0-4.8,1.3-8.4,4-10.7c2.2-1.9,4.9-2.9,8.2-2.9c3.6,0,6.5,1.2,8.7,3.5c2.3,2.3,3.4,5.6,3.4,9.7
			c0,3.3-0.5,6-1.5,7.9c-1,1.9-2.5,3.4-4.4,4.5c-1.9,1.1-4,1.6-6.3,1.6c-3.6,0-6.6-1.2-8.8-3.5C532.1,185.4,531,182.1,531,177.7z
			 M535.5,177.7c0,3.3,0.7,5.8,2.2,7.5c1.4,1.7,3.3,2.5,5.5,2.5c2.2,0,4-0.8,5.4-2.5c1.4-1.7,2.2-4.2,2.2-7.6c0-3.2-0.7-5.6-2.2-7.3
			c-1.5-1.7-3.3-2.5-5.4-2.5c-2.2,0-4,0.8-5.5,2.5C536.3,171.9,535.5,174.4,535.5,177.7z"/>
		<path class="st0" d="M560.5,200.6v-35.9h4v3.4c0.9-1.3,2-2.3,3.2-3c1.2-0.7,2.6-1,4.3-1c2.2,0,4.2,0.6,5.9,1.7
			c1.7,1.1,3,2.7,3.8,4.8c0.9,2.1,1.3,4.3,1.3,6.8c0,2.7-0.5,5-1.4,7.2c-1,2.1-2.3,3.8-4.2,4.9c-1.8,1.1-3.7,1.7-5.7,1.7
			c-1.5,0-2.8-0.3-3.9-0.9c-1.2-0.6-2.1-1.4-2.9-2.3v12.6H560.5z M564.4,177.8c0,3.3,0.7,5.8,2,7.4c1.4,1.6,3,2.4,4.9,2.4
			c2,0,3.6-0.8,5-2.5c1.4-1.7,2.1-4.2,2.1-7.7c0-3.3-0.7-5.8-2-7.4c-1.4-1.6-3-2.5-4.9-2.5c-1.9,0-3.5,0.9-5,2.6
			C565.2,171.9,564.4,174.5,564.4,177.8z"/>
		<path class="st0" d="M606,182.3l4.5,0.6c-0.7,2.7-2,4.7-4,6.2c-1.9,1.5-4.4,2.2-7.4,2.2c-3.8,0-6.8-1.2-9-3.5
			c-2.2-2.3-3.3-5.6-3.3-9.8c0-4.4,1.1-7.7,3.4-10.2c2.2-2.4,5.2-3.6,8.7-3.6c3.5,0,6.3,1.2,8.5,3.5c2.2,2.4,3.3,5.7,3.3,10
			c0,0.3,0,0.7,0,1.2h-19.3c0.2,2.8,1,5,2.4,6.5c1.4,1.5,3.3,2.3,5.4,2.3c1.6,0,3-0.4,4.1-1.3C604.5,185.5,605.4,184.2,606,182.3z
			 M591.6,175.2h14.5c-0.2-2.2-0.7-3.8-1.7-4.9c-1.4-1.7-3.2-2.5-5.4-2.5c-2,0-3.7,0.7-5.1,2C592.5,171.1,591.7,172.9,591.6,175.2z"
			/>
		<path class="st0" d="M633,187.4c-1.6,1.4-3.2,2.4-4.7,2.9c-1.5,0.6-3.1,0.9-4.8,0.9c-2.8,0-5-0.7-6.6-2.1
			c-1.5-1.4-2.3-3.2-2.3-5.3c0-1.3,0.3-2.4,0.9-3.5c0.6-1.1,1.3-1.9,2.3-2.5c0.9-0.6,2-1.1,3.2-1.4c0.9-0.2,2.2-0.4,3.9-0.7
			c3.5-0.4,6.2-0.9,7.8-1.5c0-0.6,0-1,0-1.1c0-1.8-0.4-3.1-1.2-3.8c-1.1-1-2.8-1.5-5-1.5c-2.1,0-3.6,0.4-4.6,1.1
			c-1,0.7-1.7,2-2.2,3.8l-4.3-0.6c0.4-1.8,1-3.3,1.9-4.5c0.9-1.1,2.2-2,3.9-2.6c1.7-0.6,3.7-0.9,5.9-0.9c2.2,0,4,0.3,5.4,0.8
			c1.4,0.5,2.4,1.2,3.1,2c0.7,0.8,1.1,1.8,1.4,3c0.1,0.7,0.2,2.1,0.2,4.1v5.9c0,4.1,0.1,6.7,0.3,7.8c0.2,1.1,0.6,2.1,1.1,3.1h-4.6
			C633.4,189.7,633.1,188.7,633,187.4z M632.6,177.6c-1.6,0.7-4,1.2-7.2,1.7c-1.8,0.3-3.1,0.6-3.8,0.9c-0.7,0.3-1.3,0.8-1.7,1.4
			c-0.4,0.6-0.6,1.3-0.6,2.1c0,1.2,0.4,2.1,1.3,2.9c0.9,0.8,2.2,1.2,3.9,1.2c1.7,0,3.2-0.4,4.5-1.1c1.3-0.7,2.3-1.8,2.9-3
			c0.5-1,0.7-2.5,0.7-4.4V177.6z"/>
		<path class="st0" d="M643.9,190.6v-25.9h4v3.7c1.9-2.8,4.7-4.3,8.3-4.3c1.6,0,3,0.3,4.3,0.8c1.3,0.6,2.3,1.3,2.9,2.2
			c0.7,0.9,1.1,2,1.4,3.2c0.2,0.8,0.2,2.2,0.2,4.3v15.9h-4.4v-15.8c0-1.8-0.2-3.1-0.5-4c-0.3-0.9-0.9-1.6-1.8-2.1
			c-0.9-0.5-1.9-0.8-3.1-0.8c-1.9,0-3.5,0.6-4.8,1.8c-1.4,1.2-2,3.4-2,6.8v14.2H643.9z"/>
		<path class="st0" d="M709.6,154.9h4.7v20.7c0,3.6-0.4,6.5-1.2,8.6c-0.8,2.1-2.3,3.8-4.4,5.2c-2.1,1.3-4.9,2-8.4,2
			c-3.4,0-6.1-0.6-8.2-1.7c-2.1-1.2-3.7-2.8-4.6-5c-0.9-2.2-1.4-5.2-1.4-9v-20.7h4.7v20.7c0,3.1,0.3,5.4,0.9,6.9
			c0.6,1.5,1.6,2.6,3,3.4c1.4,0.8,3.1,1.2,5.2,1.2c3.5,0,6-0.8,7.4-2.4c1.5-1.6,2.2-4.6,2.2-9.1V154.9z"/>
		<path class="st0" d="M721.7,190.6v-25.9h4v3.7c1.9-2.8,4.7-4.3,8.3-4.3c1.6,0,3,0.3,4.3,0.8c1.3,0.6,2.3,1.3,2.9,2.2
			c0.7,0.9,1.1,2,1.4,3.2c0.2,0.8,0.2,2.2,0.2,4.3v15.9h-4.4v-15.8c0-1.8-0.2-3.1-0.5-4c-0.3-0.9-0.9-1.6-1.8-2.1
			c-0.9-0.5-1.9-0.8-3.1-0.8c-1.9,0-3.5,0.6-4.8,1.8c-1.4,1.2-2,3.4-2,6.8v14.2H721.7z"/>
		<path class="st0" d="M749.5,159.9v-5.1h4.4v5.1H749.5z M749.5,190.6v-25.9h4.4v25.9H749.5z"/>
		<path class="st0" d="M759,177.7c0-4.8,1.3-8.4,4-10.7c2.2-1.9,4.9-2.9,8.2-2.9c3.6,0,6.5,1.2,8.7,3.5c2.3,2.3,3.4,5.6,3.4,9.7
			c0,3.3-0.5,6-1.5,7.9c-1,1.9-2.5,3.4-4.4,4.5c-1.9,1.1-4,1.6-6.3,1.6c-3.6,0-6.6-1.2-8.8-3.5C760.1,185.4,759,182.1,759,177.7z
			 M763.5,177.7c0,3.3,0.7,5.8,2.2,7.5c1.4,1.7,3.3,2.5,5.5,2.5c2.2,0,4-0.8,5.4-2.5c1.4-1.7,2.2-4.2,2.2-7.6c0-3.2-0.7-5.6-2.2-7.3
			c-1.5-1.7-3.3-2.5-5.4-2.5c-2.2,0-4,0.8-5.5,2.5C764.2,171.9,763.5,174.4,763.5,177.7z"/>
		<path class="st0" d="M788.4,190.6v-25.9h4v3.7c1.9-2.8,4.7-4.3,8.3-4.3c1.6,0,3,0.3,4.3,0.8c1.3,0.6,2.3,1.3,2.9,2.2
			c0.7,0.9,1.1,2,1.4,3.2c0.2,0.8,0.2,2.2,0.2,4.3v15.9h-4.4v-15.8c0-1.8-0.2-3.1-0.5-4c-0.3-0.9-0.9-1.6-1.8-2.1
			c-0.9-0.5-1.9-0.8-3.1-0.8c-1.9,0-3.5,0.6-4.8,1.8c-1.4,1.2-2,3.4-2,6.8v14.2H788.4z"/>
	</g>
</g>
</svg>
